<?xml version="1.0" standalone="no"?>
<!DOCTYPE svg PUBLIC "-//W3C//DTD SVG 20010904//EN"
 "http://www.w3.org/TR/2001/REC-SVG-20010904/DTD/svg10.dtd">
<svg version="1.0" xmlns="http://www.w3.org/2000/svg"
 width="1024.000000pt" height="1024.000000pt" viewBox="0 0 1024.000000 1024.000000"
 preserveAspectRatio="xMidYMid meet">

<g transform="translate(0.000000,1024.000000) scale(0.100000,-0.100000)"
fill="#000000" stroke="none">
<path d="M3890 9788 c-29 -11 -40 -25 -40 -55 0 -55 85 -75 117 -27 15 23 15
29 2 52 -17 31 -46 42 -79 30z"/>
<path d="M2957 9783 c-11 -11 -8 -445 4 -485 11 -43 49 -68 101 -68 49 0 60
11 56 56 -3 34 -6 39 -30 42 l-28 3 0 230 0 229 -48 0 c-27 0 -52 -3 -55 -7z"/>
<path d="M1767 9762 l-47 -3 2 -262 3 -262 50 0 50 0 3 103 3 103 32 -3 c28
-3 38 -13 85 -88 72 -117 76 -120 119 -120 71 0 72 8 6 122 l-60 105 38 32
c92 77 68 215 -44 255 -43 15 -156 24 -240 18z m212 -117 c21 -20 18 -75 -4
-91 -11 -8 -45 -14 -82 -14 l-63 0 0 66 0 66 68 -7 c37 -4 73 -13 81 -20z"/>
<path d="M3410 9720 l0 -50 75 0 75 0 2 -217 3 -218 47 -3 48 -3 2 218 3 218
71 3 c69 3 72 4 77 29 3 15 1 37 -4 50 -8 23 -9 23 -204 23 l-195 0 0 -50z"/>
<path d="M5295 9759 c-3 -8 -4 -129 -3 -269 l3 -255 88 -3 c101 -3 193 16 247
52 19 13 49 47 65 77 26 48 30 64 30 139 0 68 -4 93 -22 125 -52 97 -120 131
-285 141 -96 5 -119 4 -123 -7z m253 -116 c45 -34 65 -70 70 -126 6 -80 -23
-141 -80 -167 -24 -11 -64 -20 -90 -20 l-47 0 -3 166 c-2 91 -1 168 2 171 12
12 125 -6 148 -24z"/>
<path d="M8513 9733 c-20 -4 -23 -11 -23 -54 0 -45 -2 -49 -24 -49 -28 0 -33
-10 -28 -56 3 -28 8 -34 27 -34 23 0 23 -2 27 -121 l3 -121 32 -28 c37 -33 91
-46 136 -33 34 9 43 29 33 70 -6 21 -11 24 -34 18 -17 -3 -35 0 -47 9 -17 13
-20 26 -20 108 l0 93 53 3 53 3 -3 42 -3 42 -52 3 -53 3 0 55 c0 53 -1 54 -27
53 -16 -1 -38 -4 -50 -6z"/>
<path d="M2315 9634 c-6 -1 -22 -5 -37 -8 -71 -16 -128 -102 -128 -192 0 -139
106 -226 244 -200 34 6 106 63 106 83 0 5 -13 17 -29 26 -29 17 -31 17 -63 -3
-46 -28 -93 -26 -123 5 -49 49 -38 55 100 55 l125 0 0 33 c0 73 -40 150 -94
179 -23 12 -85 26 -101 22z m65 -104 c38 -38 27 -50 -50 -50 -77 0 -84 7 -45
45 29 30 68 32 95 5z"/>
<path d="M5906 9625 c-98 -35 -153 -143 -126 -246 25 -92 98 -148 193 -149
101 0 174 67 190 176 15 95 -50 198 -140 223 -49 14 -69 13 -117 -4z m119
-108 c20 -16 28 -35 32 -68 12 -103 -73 -166 -143 -106 -22 19 -28 34 -32 78
-4 49 -1 59 23 87 33 40 81 43 120 9z"/>
<path d="M6353 9631 c-44 -11 -77 -34 -110 -77 -23 -31 -28 -49 -31 -109 -5
-85 17 -138 74 -181 68 -52 204 -40 254 23 27 34 26 38 -15 63 l-35 22 -31
-26 c-35 -30 -58 -32 -99 -11 -53 28 -64 122 -19 179 28 35 74 35 111 -1 l28
-26 40 18 c46 21 49 32 16 68 -46 49 -121 73 -183 58z"/>
<path d="M2621 9619 c-47 -19 -51 -27 -33 -65 11 -25 20 -33 31 -28 9 4 39 9
67 11 43 4 55 2 73 -16 11 -11 21 -29 21 -38 0 -15 -8 -17 -52 -14 -73 5 -125
-13 -148 -52 -24 -39 -26 -104 -4 -136 33 -47 128 -66 173 -35 22 16 24 16 33
0 6 -11 23 -16 53 -16 l45 0 0 143 c0 161 -10 195 -69 234 -27 18 -47 23 -100
22 -36 0 -77 -5 -90 -10z m143 -225 c37 -14 7 -66 -46 -79 -32 -8 -71 25 -61
51 10 27 70 42 107 28z"/>
<path d="M3862 9433 l3 -198 48 0 c26 0 47 3 47 8 0 4 0 93 0 197 l0 190 -50
0 -50 0 2 -197z"/>
<path d="M4054 9617 c-2 -7 -3 -96 -2 -197 l3 -185 50 0 50 0 1 95 c1 148 3
166 22 188 20 25 61 36 82 22 12 -7 16 -41 20 -157 l5 -148 50 0 50 0 5 135
c3 74 9 141 13 148 17 25 58 34 83 17 23 -14 24 -21 26 -158 l3 -142 50 0 50
0 3 50 c2 28 1 102 -3 165 -7 112 -8 115 -40 147 -28 28 -40 33 -83 33 -37 0
-59 -7 -88 -26 -24 -16 -40 -22 -42 -15 -13 40 -132 55 -175 21 -14 -11 -27
-20 -30 -20 -3 0 -7 9 -10 20 -4 16 -14 20 -46 20 -25 0 -44 -5 -47 -13z"/>
<path d="M4772 9614 c-111 -57 -134 -245 -40 -330 39 -36 85 -54 138 -54 58 0
123 28 141 61 9 18 7 25 -14 47 -15 14 -31 22 -39 18 -7 -4 -24 -13 -38 -21
-40 -23 -78 -18 -111 14 -16 16 -29 34 -29 40 0 7 42 11 125 11 l125 0 0 48
c-1 61 -29 123 -71 153 -44 31 -139 37 -187 13z m133 -89 c39 -38 32 -45 -51
-45 -80 0 -82 2 -41 48 27 29 62 28 92 -3z"/>
<path d="M6617 9624 c-12 -12 -7 -276 6 -313 24 -68 102 -97 172 -65 22 10 43
19 46 21 4 2 9 -6 12 -17 5 -18 12 -21 49 -18 l43 3 0 195 0 195 -47 3 -48 3
0 -114 c0 -63 -5 -128 -10 -144 -10 -28 -45 -53 -73 -53 -37 1 -42 17 -47 162
l-5 143 -45 3 c-25 2 -49 0 -53 -4z"/>
<path d="M7024 9617 c-2 -7 -3 -96 -2 -197 l3 -185 50 0 50 0 5 130 c3 72 9
137 13 146 7 15 48 39 65 39 32 -1 37 -22 42 -167 l5 -148 44 -3 c28 -2 47 1
52 10 5 7 9 68 9 134 0 133 9 157 60 169 50 12 59 -15 62 -170 l3 -140 48 -3
48 -3 -3 170 c-3 170 -3 171 -30 197 -20 21 -39 28 -80 32 -45 3 -59 0 -93
-23 -24 -17 -41 -23 -43 -16 -13 40 -132 55 -175 21 -14 -11 -27 -20 -30 -20
-3 0 -7 9 -10 20 -4 16 -14 20 -46 20 -25 0 -44 -5 -47 -13z"/>
<path d="M7742 9613 c-94 -46 -130 -174 -77 -280 36 -71 102 -107 186 -101 47
3 66 10 96 35 45 36 47 49 12 75 -26 19 -26 19 -60 -1 -47 -29 -94 -27 -124 4
-49 49 -38 55 100 55 l125 0 0 47 c0 105 -75 183 -176 183 -27 0 -64 -8 -82
-17z m133 -88 c14 -13 25 -28 25 -34 0 -5 -34 -11 -75 -13 -41 -2 -75 -2 -75
0 0 12 32 61 42 65 30 12 60 5 83 -18z"/>
<path d="M8060 9435 l0 -195 49 0 49 0 4 131 c3 129 3 131 31 155 34 29 48 30
78 5 22 -18 24 -27 27 -155 l4 -136 49 0 49 0 0 140 c0 150 -9 188 -50 225
-30 27 -138 29 -167 3 -25 -23 -29 -22 -36 2 -4 16 -14 20 -46 20 l-41 0 0
-195z"/>
<path d="M3174 9476 c-3 -8 -4 -27 -2 -43 l3 -28 118 -3 117 -3 0 46 0 45
-115 0 c-91 0 -117 -3 -121 -14z"/>
<path d="M4400 8736 l0 -255 27 -21 c20 -16 38 -20 72 -18 45 3 46 4 49 40 3
32 0 37 -20 40 l-23 3 -5 230 -5 230 -47 3 -48 3 0 -255z"/>
<path d="M4600 8736 l0 -255 26 -20 c30 -23 119 -30 126 -9 10 28 -5 67 -26
70 -21 3 -21 7 -26 233 l-5 230 -47 3 -48 3 0 -255z"/>
<path d="M5870 8960 c-29 -29 -23 -70 13 -90 24 -13 30 -13 55 0 49 28 37 92
-20 105 -19 5 -32 1 -48 -15z"/>
<path d="M3673 8959 c-55 -10 -91 -30 -129 -71 -47 -49 -66 -95 -72 -169 -6
-86 16 -155 68 -208 53 -55 93 -73 172 -79 80 -6 143 20 184 74 31 40 27 57
-17 79 -31 17 -32 16 -65 -16 -67 -65 -173 -45 -217 41 -14 26 -17 52 -15 102
3 61 7 71 38 103 60 62 136 67 190 13 29 -28 29 -28 64 -11 41 19 45 39 15 77
-42 53 -131 80 -216 65z"/>
<path d="M5635 8931 l-40 -6 1 -52 c2 -49 0 -53 -22 -53 -30 0 -36 -12 -28
-55 5 -28 11 -35 30 -35 24 0 24 -1 24 -106 0 -154 27 -189 141 -182 58 3 67
14 55 65 -6 21 -11 24 -35 18 -49 -11 -61 13 -61 120 l0 93 48 -1 47 0 3 41 3
42 -50 0 -51 0 0 60 c0 42 -4 60 -12 59 -7 -1 -31 -5 -53 -8z"/>
<path d="M4109 8830 c-86 -15 -146 -82 -156 -173 -10 -97 27 -164 111 -203 61
-28 107 -30 161 -5 108 49 145 181 83 292 -36 65 -120 102 -199 89z m81 -103
c53 -27 59 -138 10 -182 -32 -29 -88 -25 -116 9 -35 40 -34 127 1 161 27 28
66 32 105 12z"/>
<path d="M6180 8830 c-101 -18 -160 -92 -160 -197 1 -96 58 -169 151 -194 144
-38 270 98 230 248 -26 95 -126 160 -221 143z m81 -103 c46 -35 54 -128 15
-173 -30 -35 -86 -39 -117 -8 -44 44 -42 147 4 179 26 18 76 19 98 2z"/>
<path d="M4885 8811 c-48 -22 -69 -44 -90 -94 -31 -75 -15 -174 37 -224 80
-77 190 -81 265 -11 29 27 29 44 -1 63 -23 15 -27 15 -66 -5 -53 -27 -100 -21
-130 17 -11 14 -20 30 -20 34 0 5 56 9 125 9 l125 0 0 48 c0 135 -125 218
-245 163z m120 -86 c39 -38 32 -45 -45 -45 -42 0 -70 4 -70 10 0 19 48 60 70
60 12 0 32 -11 45 -25z"/>
<path d="M5285 8816 c-69 -30 -115 -102 -115 -181 0 -150 144 -246 277 -186
43 20 79 63 68 81 -3 5 -20 17 -37 26 -28 15 -31 14 -52 -4 -84 -78 -184 22
-136 137 23 56 95 66 132 18 16 -21 16 -21 57 -2 47 21 51 36 16 71 -51 51
-144 69 -210 40z"/>
<path d="M6620 8819 c-13 -5 -33 -17 -43 -26 -17 -16 -18 -15 -24 5 -4 18 -12
22 -49 22 l-44 0 2 -187 3 -188 48 0 47 0 3 120 c2 72 8 129 15 142 24 44 95
41 113 -4 5 -13 9 -78 9 -144 l0 -119 50 0 50 0 0 140 c0 154 -10 196 -54 225
-32 21 -93 28 -126 14z"/>
<path d="M5860 8630 l0 -190 50 0 50 0 0 190 0 190 -50 0 -50 0 0 -190z"/>
<path d="M4061 7989 c-67 -5 -77 -8 -102 -37 l-29 -32 0 -1303 c0 -1021 3
-1307 13 -1327 7 -14 28 -33 47 -42 33 -17 96 -18 893 -18 622 0 864 3 880 11
31 17 478 454 502 492 20 32 20 41 20 1103 0 1164 3 1103 -56 1138 -28 17 -95
18 -1062 19 -568 1 -1065 -1 -1106 -4z m2117 -111 c9 -9 12 -252 12 -1030 l0
-1018 -172 -1 c-240 0 -257 -3 -290 -39 l-28 -30 0 -215 0 -215 -832 2 -833 3
-3 1265 c-1 696 0 1271 3 1278 6 17 2125 18 2143 0z m-39 -2150 c-2 -2 -82
-79 -177 -173 l-172 -169 0 172 0 172 177 0 c97 0 174 -1 172 -2z"/>
<path d="M4353 7624 c-10 -4 -13 -64 -13 -250 l0 -244 80 0 c103 0 173 16 211
47 121 102 97 362 -41 434 -25 13 -215 23 -237 13z m190 -105 c40 -18 61 -66
61 -139 0 -108 -38 -150 -136 -150 l-28 0 0 150 0 150 40 0 c21 0 50 -5 63
-11z"/>
<path d="M4873 7618 c-18 -23 -165 -447 -161 -465 2 -13 14 -19 41 -21 48 -4
61 7 77 63 l13 45 82 0 82 0 19 -52 c19 -52 20 -53 63 -56 24 -2 48 1 53 6 9
9 -143 453 -165 480 -5 6 -29 12 -52 12 -23 0 -47 -6 -52 -12z m92 -260 c7
-28 6 -28 -39 -28 -25 0 -46 4 -46 9 0 5 10 35 22 67 l22 58 17 -40 c10 -21
21 -51 24 -66z"/>
<path d="M5195 7619 c-3 -8 -4 -120 -3 -249 l3 -235 48 -3 47 -3 0 95 0 96 29
0 c25 0 35 -10 85 -95 l57 -95 45 0 c30 0 46 5 50 15 4 8 -18 54 -50 106 l-57
91 26 20 c81 63 71 198 -17 244 -45 24 -255 34 -263 13z m213 -105 c12 -8 22
-26 22 -39 0 -34 -36 -55 -92 -55 l-48 0 0 55 0 55 48 0 c27 0 57 -7 70 -16z"/>
<path d="M5570 7585 l0 -45 65 0 65 0 2 -202 3 -203 45 0 45 0 3 202 2 202 58
3 57 3 0 40 0 40 -172 3 -173 2 0 -45z"/>
<path d="M4832 6832 l-503 -2 -10 -24 c-8 -17 -8 -29 0 -45 l12 -21 769 0
c766 0 769 0 783 21 16 22 12 58 -7 65 -17 6 -485 9 -1044 6z"/>
<path d="M4320 6484 c-10 -11 -11 -23 -4 -42 l9 -27 574 -3 c415 -1 578 1 587
9 17 14 18 51 2 67 -9 9 -152 12 -584 12 -506 0 -573 -2 -584 -16z"/>
<path d="M4320 6134 c-10 -11 -11 -23 -4 -42 l9 -27 769 -3 c576 -1 772 1 783
10 8 6 13 24 11 42 l-3 31 -776 3 c-695 2 -778 0 -789 -14z"/>
<path d="M4320 5801 c-16 -30 -12 -48 12 -65 20 -14 81 -16 470 -16 255 0 457
4 471 9 34 13 44 47 21 72 -16 18 -36 19 -490 19 -458 0 -474 -1 -484 -19z"/>
<path d="M2895 7529 c-137 -28 -563 -108 -945 -180 -875 -163 -798 -146 -838
-185 -45 -45 -43 -69 28 -433 80 -414 149 -772 210 -1096 174 -922 207 -1086
227 -1113 37 -50 66 -49 329 2 131 26 565 110 964 187 399 77 749 144 777 150
62 12 109 53 118 102 4 21 -31 228 -99 587 -101 536 -156 828 -271 1445 -97
519 -98 525 -134 557 -42 38 -63 36 -366 -23z m314 -81 c6 -18 26 -116 45
-218 20 -102 101 -534 180 -960 80 -426 166 -883 191 -1014 49 -262 51 -279
33 -294 -7 -5 -130 -33 -273 -60 -1635 -319 -1707 -333 -1721 -322 -19 16 -18
12 -83 361 -102 542 -308 1624 -356 1868 -25 129 -45 245 -45 257 0 13 9 28
20 34 10 6 234 51 497 101 804 152 931 177 1128 214 105 20 219 43 255 50 106
21 117 20 129 -17z"/>
<path d="M2594 7101 c-93 -42 -137 -145 -115 -269 23 -129 89 -203 189 -210
74 -5 134 11 177 49 34 30 62 90 50 108 -9 15 -79 33 -83 21 -2 -5 -13 -24
-25 -42 -44 -64 -127 -57 -181 15 -31 41 -35 160 -7 204 35 56 104 61 172 12
13 -10 21 -8 42 7 36 27 39 39 15 70 -43 54 -154 71 -234 35z"/>
<path d="M2195 7032 c-100 -21 -130 -31 -128 -42 1 -8 16 -91 33 -184 16 -93
33 -193 37 -223 3 -29 10 -56 14 -59 12 -7 302 45 313 56 10 10 0 77 -13 84
-4 3 -53 -3 -109 -13 -56 -10 -105 -15 -107 -11 -3 5 -8 28 -11 53 -6 43 -5
45 22 50 16 4 55 11 88 17 l58 12 -5 40 c-3 22 -8 42 -10 45 -3 2 -42 -3 -87
-12 -86 -18 -99 -14 -100 25 0 8 -3 25 -6 36 -5 20 1 23 96 40 56 9 104 23
107 29 2 7 0 28 -4 46 -12 44 -23 44 -188 11z"/>
<path d="M1795 6958 c-78 -29 -115 -78 -115 -151 0 -46 23 -87 60 -107 10 -5
57 -16 105 -25 49 -8 94 -20 102 -26 20 -17 16 -56 -9 -73 -40 -28 -96 -18
-144 25 -20 19 -21 18 -54 -16 l-34 -35 20 -27 c79 -108 310 -65 333 62 20
114 -35 171 -189 190 -63 9 -90 23 -90 47 0 40 76 62 116 34 18 -13 24 -12 53
6 22 14 31 27 29 41 -6 45 -120 79 -183 55z"/>
<path d="M3075 6413 c-36 -8 -1258 -244 -1348 -261 -96 -17 -114 -31 -98 -75
5 -13 15 -27 23 -29 7 -3 202 32 433 77 231 45 560 108 730 140 171 32 316 62
323 68 17 13 15 52 -4 71 -16 16 -23 17 -59 9z"/>
<path d="M3015 6049 c-77 -15 -390 -76 -695 -134 -305 -58 -572 -110 -592
-115 -35 -10 -38 -14 -38 -45 0 -51 19 -55 130 -33 52 10 356 68 675 128 643
122 675 128 693 143 26 20 8 89 -22 86 -6 -1 -74 -14 -151 -30z"/>
<path d="M2550 5599 c-168 -32 -408 -77 -535 -100 -136 -25 -237 -48 -247 -57
-23 -20 -23 -45 1 -66 18 -17 30 -15 238 23 120 23 370 70 556 105 224 41 342
68 348 77 21 33 -3 80 -39 78 -9 -1 -154 -27 -322 -60z"/>
<path d="M2232 5189 c-211 -43 -390 -84 -398 -90 -19 -16 -14 -59 8 -73 13 -8
107 8 380 62 200 40 375 75 391 78 47 10 61 72 19 92 -11 5 -161 -21 -400 -69z"/>
<path d="M7003 7565 c-17 -7 -38 -26 -47 -42 -16 -32 -65 -278 -191 -963 -47
-256 -133 -718 -191 -1027 l-106 -562 18 -38 c11 -20 33 -46 50 -55 18 -10
136 -38 265 -63 324 -62 1642 -314 1710 -327 72 -14 119 -5 153 31 29 30 31
37 176 811 34 179 77 406 95 505 19 99 75 396 125 660 50 264 95 499 100 522
6 23 10 54 10 70 0 40 -35 92 -73 107 -17 8 -171 39 -342 71 -170 31 -463 85
-650 120 -390 74 -1056 195 -1064 195 -3 -1 -20 -7 -38 -15z m437 -155 c179
-34 523 -99 765 -145 242 -46 530 -100 640 -120 110 -21 206 -43 213 -50 11
-10 9 -36 -13 -151 -81 -428 -288 -1521 -386 -2029 -63 -330 -67 -343 -119
-330 -22 6 -529 102 -1555 295 -430 81 -405 74 -405 109 0 16 13 100 30 188
16 87 95 514 175 948 198 1072 250 1336 266 1346 8 5 25 7 39 4 14 -2 171 -32
350 -65z"/>
<path d="M7164 7157 c-14 -38 -81 -423 -74 -430 9 -10 250 -50 257 -43 3 2 7
22 10 44 l5 39 -83 14 c-62 11 -84 19 -82 30 8 70 15 90 31 85 9 -3 43 -8 74
-11 l56 -7 11 38 c6 21 7 41 3 45 -4 4 -36 12 -71 18 -35 6 -66 12 -68 15 -2
2 -1 20 3 40 l6 36 52 -7 c28 -4 66 -8 85 -8 31 0 35 4 43 34 5 18 7 35 5 38
-6 5 -214 43 -239 43 -10 0 -21 -6 -24 -13z"/>
<path d="M7481 7073 c-20 -97 -60 -329 -63 -368 l-3 -40 60 -13 c80 -17 164
-11 198 13 74 54 112 240 69 338 -11 25 -32 53 -47 63 -21 14 -163 53 -197 54
-3 0 -11 -21 -17 -47z m149 -77 c32 -14 45 -65 36 -139 -10 -78 -41 -121 -90
-125 -63 -5 -65 -3 -51 75 7 37 18 101 25 141 13 79 13 79 80 48z"/>
<path d="M7856 7042 c-3 -5 -21 -96 -41 -203 -20 -107 -38 -202 -41 -211 -6
-20 23 -38 60 -38 14 0 26 1 26 3 1 1 18 99 40 217 35 196 37 216 22 228 -18
14 -58 16 -66 4z"/>
<path d="M8005 7008 c-7 -21 -75 -397 -75 -417 0 -21 57 -38 73 -22 6 6 20 61
32 123 26 129 21 132 80 -50 32 -96 41 -113 62 -118 13 -4 28 -3 33 2 5 5 29
105 53 222 l44 214 -24 9 c-37 14 -61 11 -67 -8 -2 -10 -12 -54 -21 -98 -9
-44 -19 -87 -22 -95 -3 -8 -26 44 -53 115 -46 127 -48 130 -79 133 -19 2 -33
-2 -36 -10z"/>
<path d="M8361 6941 c-18 -34 -84 -422 -74 -432 12 -12 230 -52 248 -46 16 7
26 59 14 73 -5 7 -46 17 -90 24 -63 10 -79 16 -75 27 4 8 9 32 12 54 7 43 10
44 85 28 47 -10 54 -9 66 7 17 23 17 60 -1 67 -7 3 -34 8 -58 12 -63 10 -68
15 -61 59 l6 38 51 -8 c28 -4 67 -8 85 -8 32 -1 36 2 42 34 4 19 6 36 5 38 -2
1 -58 13 -125 26 -111 21 -122 22 -130 7z"/>
<path d="M8634 6897 c-2 -7 -6 -26 -7 -42 -2 -27 1 -30 46 -38 26 -5 47 -13
47 -17 0 -5 -13 -80 -30 -168 -16 -89 -30 -169 -30 -180 0 -22 18 -32 59 -32
l27 0 34 184 33 184 52 -5 52 -6 7 38 c4 20 6 39 4 41 -2 1 -58 12 -123 24
-66 11 -130 23 -143 26 -13 3 -24 -1 -28 -9z"/>
<path d="M7126 6401 c-24 -26 -14 -69 17 -76 12 -3 184 -34 382 -71 198 -36
514 -94 703 -130 189 -35 353 -64 366 -64 13 0 29 7 36 14 15 19 9 56 -10 67
-8 5 -332 67 -720 139 -388 72 -717 133 -731 136 -17 3 -31 -2 -43 -15z"/>
<path d="M7054 6065 c-15 -22 -15 -27 -1 -47 13 -20 42 -28 258 -66 134 -24
457 -84 718 -133 261 -49 484 -89 495 -89 30 0 46 18 46 52 0 20 -7 31 -22 37
-13 5 -138 30 -278 55 -140 25 -463 84 -718 131 -255 47 -467 85 -472 85 -5 0
-17 -11 -26 -25z"/>
<path d="M6992 5738 c-7 -7 -12 -19 -12 -28 0 -43 18 -49 353 -110 181 -33
423 -78 538 -100 245 -47 264 -48 280 -19 21 40 -2 65 -68 77 -32 6 -166 31
-298 56 -407 77 -737 136 -759 136 -12 0 -27 -5 -34 -12z"/>
<path d="M6920 5401 c-19 -36 3 -67 57 -80 98 -22 800 -151 824 -151 14 0 30
5 37 12 16 16 15 67 0 73 -21 8 -868 165 -889 165 -10 0 -23 -9 -29 -19z"/>
<path d="M5003 5063 c-10 -4 -13 -83 -13 -349 l0 -344 -113 0 c-116 0 -137 -6
-137 -41 0 -17 284 -404 338 -461 44 -47 63 -38 145 65 141 177 287 378 287
396 0 35 -21 41 -137 41 l-113 0 0 340 c0 325 -1 340 -19 350 -20 10 -215 13
-238 3z"/>
<path d="M2829 4531 c-90 -33 -99 -38 -99 -56 0 -7 66 -87 146 -177 80 -90
206 -231 280 -315 l135 -152 -83 -80 c-46 -43 -80 -82 -76 -86 6 -6 418 -141
545 -178 91 -27 90 -37 53 293 -31 281 -42 330 -74 330 -7 0 -48 -28 -90 -62
l-78 -61 -27 29 c-15 16 -133 145 -260 287 -265 293 -239 277 -372 228z"/>
<path d="M7216 4488 c-39 -40 -158 -169 -264 -285 -107 -117 -196 -213 -199
-213 -2 0 -37 27 -77 60 -79 65 -102 72 -115 38 -12 -32 -73 -586 -66 -598 3
-6 17 -10 30 -10 32 0 557 169 573 185 11 10 -1 26 -67 90 l-81 78 23 28 c12
15 128 143 258 286 312 341 302 328 286 341 -17 14 -186 72 -210 72 -11 0 -50
-31 -91 -72z"/>
<path d="M3887 3628 c4 -24 7 -80 7 -125 1 -73 -1 -84 -24 -108 -33 -36 -72
-55 -111 -55 -17 0 -103 23 -190 50 -87 28 -232 73 -321 101 -139 44 -164 49
-184 38 -56 -30 -54 21 -54 -1208 l0 -1131 -76 0 c-82 0 -125 -16 -146 -53
-20 -35 -14 -200 10 -274 51 -159 183 -283 345 -322 35 -8 552 -12 1985 -12
1930 -1 1937 -1 2002 20 122 38 228 126 287 237 38 71 51 121 54 194 4 127 1
140 -35 176 -33 33 -37 34 -109 34 l-76 0 -3 123 c-2 67 -5 571 -6 1120 -2
868 -4 1003 -18 1035 -18 44 -42 72 -62 72 -8 0 -152 -44 -321 -97 -204 -65
-322 -98 -353 -98 -55 0 -94 24 -121 76 -18 34 -18 75 0 206 l5 43 -1246 0
-1246 0 7 -42z m3003 -1248 l0 -930 -1765 0 -1765 0 0 930 0 930 1765 0 1765
0 0 -930z m-1210 -1307 c0 -29 -37 -81 -70 -98 -26 -14 -88 -15 -499 -13
l-469 3 -27 25 c-23 21 -55 76 -55 95 0 3 252 5 560 5 527 0 560 -1 560 -17z
m1691 -13 c1 -16 2 -36 3 -42 4 -34 -17 -125 -40 -171 -58 -113 -169 -196
-290 -216 -72 -12 -3703 -14 -3816 -2 -140 15 -253 93 -313 215 -24 48 -30 76
-33 148 l-4 88 796 0 c751 0 796 -1 796 -17 1 -30 35 -96 66 -127 67 -66 58
-66 589 -66 445 0 483 2 521 19 52 23 112 94 127 148 11 41 12 42 56 45 26 2
382 5 794 6 l747 2 1 -30z"/>
<path d="M3752 2938 c-19 -19 -15 -66 7 -78 13 -7 460 -10 1375 -10 1218 0
1356 2 1370 16 19 18 21 55 4 72 -17 17 -2739 17 -2756 0z"/>
<path d="M3752 2598 c-7 -7 -12 -24 -12 -38 0 -14 5 -31 12 -38 9 -9 283 -12
1169 -12 1039 0 1159 2 1173 16 20 20 20 48 0 68 -14 14 -134 16 -1173 16
-886 0 -1160 -3 -1169 -12z"/>
<path d="M3752 2258 c-19 -19 -15 -66 7 -78 13 -7 329 -10 955 -10 836 0 936
2 950 16 19 18 20 38 6 65 -10 19 -32 19 -958 19 -724 0 -951 -3 -960 -12z"/>
<path d="M3758 1919 c-21 -12 -24 -59 -6 -77 9 -9 180 -12 709 -12 621 0 699
2 713 16 9 8 16 24 16 34 0 10 -7 26 -16 34 -14 14 -91 16 -707 16 -451 -1
-698 -4 -709 -11z"/>
<path d="M3358 899 c-45 -26 -5 -104 41 -80 36 20 36 62 0 81 -21 12 -20 12
-41 -1z"/>
<path d="M3602 894 c-29 -20 -28 -50 2 -69 19 -13 29 -14 45 -5 28 14 29 65 2
80 -25 13 -22 13 -49 -6z"/>
<path d="M3852 894 c-28 -19 -26 -51 3 -70 18 -12 24 -11 43 2 26 18 28 46 6
68 -19 20 -24 20 -52 0z"/>
</g>
</svg>
